<svg width="900" height="760" viewBox="0 0 900 760" fill="none" xmlns="http://www.w3.org/2000/svg">
  <rect width="900" height="760" fill="#F0F7FA"/>
  <rect x="76" y="80" width="748" height="600" rx="42" fill="#EAF4F7"/>
  <circle cx="236" cy="248" r="120" fill="#C7E2F1"/>
  <circle cx="618" cy="260" r="146" fill="#D5A24F" fill-opacity="0.35"/>
  <circle cx="610" cy="470" r="170" fill="#2D7A78" fill-opacity="0.28"/>
  <rect x="172" y="332" width="556" height="196" rx="32" fill="#FFFFFF" fill-opacity="0.9"/>
  <g opacity="0.95">
    <circle cx="294" cy="388" r="48" fill="#1F3F5F"/>
    <circle cx="390" cy="388" r="48" fill="#2D7A78"/>
    <circle cx="486" cy="388" r="48" fill="#D5A24F"/>
    <circle cx="582" cy="388" r="48" fill="#2F6B9C"/>
  </g>
  <g opacity="0.9">
    <rect x="240" y="472" width="108" height="20" rx="10" fill="#1F3F5F" fill-opacity="0.7"/>
    <rect x="366" y="472" width="136" height="20" rx="10" fill="#2D7A78" fill-opacity="0.7"/>
    <rect x="520" y="472" width="104" height="20" rx="10" fill="#D5A24F" fill-opacity="0.7"/>
  </g>
  <g>
    <path d="M608 172H724C735.046 172 744 180.954 744 192V232C744 243.046 735.046 252 724 252H608C596.954 252 588 243.046 588 232V192C588 180.954 596.954 172 608 172Z" fill="#1F3F5F"/>
    <path d="M598 212H734" stroke="#F4F7FB" stroke-width="12" stroke-linecap="round"/>
    <path d="M624 193L619 233" stroke="#F4F7FB" stroke-width="12" stroke-linecap="round"/>
    <path d="M664 193L659 233" stroke="#F4F7FB" stroke-width="12" stroke-linecap="round"/>
    <path d="M704 193L699 233" stroke="#F4F7FB" stroke-width="12" stroke-linecap="round"/>
  </g>
</svg>
